<svg xmlns="http://www.w3.org/2000/svg" viewBox="0 0 1000 665"><defs><style>.a{fill:url(#a);}.b{fill:#fff;}.c{fill:#666;}</style><linearGradient id="a" x1="499.5" y1="4.55" x2="499.5" y2="660.55" gradientTransform="rotate(-90 499.5 332.55)" gradientUnits="userSpaceOnUse"><stop offset="0" stop-color="#1a1f46"/><stop offset=".35" stop-color="#1a1f46"/><stop offset=".47" stop-color="#2b4a83"/><stop offset=".55" stop-color="#3564a8"/><stop offset=".61" stop-color="#3464a4"/><stop offset=".66" stop-color="#326499"/><stop offset=".71" stop-color="#2f6386"/><stop offset=".77" stop-color="#2a636b"/><stop offset=".82" stop-color="#246248"/><stop offset=".85" stop-color="#206230"/><stop offset="1" stop-color="#206230"/></linearGradient></defs><title>cc-carte_bleue</title><rect class="a" x="171.5" y="-162.45" width="656" height="990" rx="51.39" ry="51.39" transform="rotate(90 499.5 332.55)"/><path class="b" d="M306.64 330.65h214.55v.22c0 48.12-13.35 101.32-52 132.89s-102.83 41.59-162 41.59c-60.91 0-124.07-8.84-163-42.12-36.66-31.32-51-85.64-51-132.36 0-44.6 7.32-94.24 41.1-125.08 39.18-35.81 109.4-49.41 172.91-49.41 61 0 129.27 12.38 168.25 45.77 32.73 28 43.52 71.65 45.43 114H306.64zm228.6 0v166.91h298v-.22a82.36 82.36 0 0 0 78.29-82.22c0-44.12-34.68-82.35-78.29-84.54v.07zm370.84-91.05a75.71 75.71 0 0 0-76.24-76.22c-2.93 0-6.55-.55-9.4-.24h-285.2v153h300.45a76.88 76.88 0 0 0 70.39-76.54z"/><path class="c" d="M944 665.1H55a55 55 0 0 1-55-55V55A55 55 0 0 1 55 0h889a55 55 0 0 1 55 55v555.1a55 55 0 0 1-55 55zm50.5-55.94V55.94a51.39 51.39 0 0 0-51.39-51.39H55.89A51.39 51.39 0 0 0 4.5 55.94v553.22a51.39 51.39 0 0 0 51.39 51.39h887.22a51.39 51.39 0 0 0 51.39-51.39z"/></svg>