<svg id="mask" xmlns="http://www.w3.org/2000/svg" viewBox="0 0 995 661"><defs><style>.cls-1{fill:#fff;stroke:#333;stroke-miterlimit:10;stroke-width:5px;}.cls-2{fill:#cc2131;}.cls-3{fill:#3a9bd9;}.cls-4{fill:#007fc3;}.cls-5{fill:red;}.cls-6{fill:none;stroke:#292526;stroke-width:0.198px;}.cls-7{fill:#292526;}</style></defs><title>cc-ec</title><g id="PayPal"><g id="Card_Frame" data-name="Card Frame"><rect class="cls-1" x="171.5" y="-162.45001" width="656" height="990" rx="51.38712" ry="51.38712" transform="translate(830.04999 -169) rotate(90)"/></g></g><g id="ELV"><path class="cls-2" d="M727.823,32.1965H525.50492v285.426H449.30528v25.15809h73.87705l.01143,170.41677H724.5565V317.62253H606.859v97.54471s-16.2811-.01128-22.61392,0c-6.32139-.01128-15.02826-7.11223-15.02826-14.947V148.22739c0-7.92505,9.49637-16.979,17.07056-16.979h21.27527v90.46072H727.82877Z" transform="translate(-2 -2.04999)"/><path class="cls-3" d="M452.64044,317.68459H367.48218v83.13962c0,7.11224,7.271,11.97226,12.83726,12.75686,7.86595,1.12327,22.81984,0,22.81984,0V342.9217l48.96912-.079s-.103,81.37289.02287,119.254c.12016,33.98625,29.94212,50.40653,50.59955,50.525,15.09691.09035-162.53065-.02256-203.8512-.02256-41.31486,0-51.429-41.45408-51.429-50.15244,0-8.68709.389-365.28046,0-380.49836-.40617-16.01378,16.26966-49.492,49.341-49.40737,36.24631.09031,220.53845-.05079,207.02617,0-15.88637.05644-50.56519,12.68912-50.51945,50.604.07437,45.80613-.65787,234.53971-.65787,234.53971ZM403.74569,132.00474H386.658c-11.92193,0-19.46181,2.76585-19.46181,19.34978v67.13712h36.601Z" transform="translate(-2 -2.04999)"/><path d="M524.18245,513.279V342.72679h-73.877s.05722,77.495,0,119.1523c-.0515,40.28563,38.03119,50.64915,50.89127,50.59274Q512.69994,512.50194,524.18245,513.279ZM450.048,317.55177h76.19965V32.12013H500.79627c-31.378,0-50.23912,33.45569-50.23912,49.94362-.00572,16.49357-.50912,235.488-.50912,235.488Z" transform="translate(-2 -2.04999)"/><g id="g2353"><path id="path2355" class="cls-4" d="M251.11689,590.57935h11.4535V584.806c-.17267-6.40313-1.49644-8.60748-6.0433-8.60748-5.52531,0-5.4102,5.77331-5.4102,11.75656Zm-11.22327,15.4305V588.95232c-.63311-15.43049,5.41019-24.19544,16.4608-24.19544,15.77015,0,17.43925,10.70688,17.43925,28.65664v8.76494H251.11689v9.49973c.23022,8.60749,2.64754,10.23452,6.0433,10.23452,4.08643,0,5.4102-3.98884,5.23753-12.33391H273.621c.46044,14.59075-4.08642,23.77557-15.59748,23.77557-13.065,0-18.41768-8.18761-18.1299-27.34452" transform="translate(-2 -2.04999)"/></g><g id="g2361"><path id="path2363" class="cls-5" d="M613.6575,589.10983H602.43422V581.867c-.17266-3.569-1.61154-5.66835-3.91376-5.66835-4.31664,0-4.31664,6.66556-4.31664,14.53826v15.483c-.40289,12.75378.92088,15.11559,4.31664,15.69292,3.45332-.15745,3.626-4.46119,3.91376-9.65718v-6.03574H613.6575v6.03574c0,13.646-4.20153,21.09884-15.42481,21.09884-9.95706,0-15.59748-6.98046-15.137-24.35289V587.95517c-.17266-18.42212,6.50375-23.19823,15.137-23.19823,11.39594,0,15.655,9.49973,15.42481,19.15691v5.196" transform="translate(-2 -2.04999)"/></g><g id="g2369"><path id="path2371" class="cls-6" d="M288.12546,544.86471" transform="translate(-2 -2.04999)"/><path id="path2371-2" data-name="path2371" class="cls-6" d="M288.12546,631.72687" transform="translate(-2 -2.04999)"/></g><g id="g2373"><path id="path2375" class="cls-7" d="M313.16147,590.57935h11.22328V584.806c0-6.40313-1.26622-8.60748-5.81308-8.60748-5.75553,0-5.4102,5.77331-5.4102,11.75656Zm-11.22327,15.4305V588.95232c-.518-15.43049,5.35264-24.19544,16.40325-24.19544,15.8277,0,17.4968,10.70688,17.4968,28.65664v8.76494H313.16147v9.49973c.17267,8.60749,2.64755,10.23452,5.87064,10.23452,4.25909,0,5.35264-3.98884,5.23753-12.33391H335.608c.518,14.59075-4.02887,23.77557-15.59748,23.77557-13.00749,0-18.245-8.18761-18.07235-27.34452" transform="translate(-2 -2.04999)"/></g><g id="g2377"><path id="path2379" class="cls-7" d="M372.90374,589.10983H361.68046V581.867c-.17266-3.569-1.43888-5.66835-3.8562-5.66835-4.31665,0-4.31665,6.66556-4.31665,14.53826v15.483c-.1151,12.75378,1.036,15.11559,4.31665,15.69292,3.39576-.15745,3.51087-4.46119,3.8562-9.65718v-6.03574h11.22328v6.03574c0,13.646-4.02887,21.09884-15.3097,21.09884-10.07217,0-15.77015-6.98046-15.3097-24.35289V587.95517c-.11511-18.42212,6.67641-23.19823,15.3097-23.19823,11.4535,0,15.48237,9.49973,15.3097,19.15691v5.196" transform="translate(-2 -2.04999)"/></g><g id="g2381"><path id="path2383" class="cls-7" d="M395.86841,620.12827V631.9898c-6.84908.89224-16.11548,1.837-16.11548-10.33948V577.35325h-4.54686V566.43643h4.3742V548.43418h11.39594v18.00225h4.8922v10.91682h-4.8922v40.72811c.34533,2.67672,3.45332,2.20436,4.8922,2.04691" transform="translate(-2 -2.04999)"/></g><g id="g2385"><path id="path2387" class="cls-7" d="M411.3507,566.43688v11.54663h.17267c1.43888-4.77611,2.76265-7.40034,4.3742-9.18482,3.108-3.569,5.35264-3.41151,7.13685-3.569v17.94976c-6.33108-.89224-11.05061,1.20715-11.22328,10.86433v37.684H400.4152v-65.291h10.9355" transform="translate(-2 -2.04999)"/></g><g id="g2389"><path id="path2391" class="cls-7" d="M443.23626,633.35439c-14.7917.47236-17.43925-9.34228-17.26658-31.91069,0-22.411.17267-36.6868,17.26658-36.6868,16.74858,0,16.9788,14.27584,16.9788,36.6868C460.33017,624.01211,457.91285,633.82675,443.23626,633.35439Zm-6.0433-44.66447v21.67617c0,7.97767.69066,11.54663,6.0433,11.54663,5.23753,0,5.698-3.569,5.698-11.54663V588.68992c0-6.08823,0-12.49136-5.698-12.49136-6.0433,0-6.0433,6.40313-6.0433,12.49136" transform="translate(-2 -2.04999)"/></g><g id="g2393"><path id="path2395" class="cls-7" d="M478.57531,566.43688v6.66555h.17267c2.59-7.61028,7.65485-8.34506,10.24484-8.34506,6.33108,0,11.56861,4.88107,11.22327,16.48019v50.49027H488.99282V588.218c0-6.35064-.63311-10.49693-4.8922-10.86433-4.20154-.105-5.698,5.24847-5.52531,12.07148v42.30266H467.352v-65.291h11.22327" transform="translate(-2 -2.04999)"/></g><path id="path2397" class="cls-7" d="M520.418,558.51123H509.022v-13.646h11.396Zm0,73.21617H509.022V566.38389h11.396Zm-226.59552,1.64322h-11.396V548.68985h11.396Z" transform="translate(-2 -2.04999)"/><g id="g2399"><path id="path2401" class="cls-7" d="M558.98,589.10983H547.6416V581.867c-.23022-3.569-1.49644-5.66835-3.79865-5.66835-4.3742,0-4.3742,6.66556-4.25909,14.53826v15.483c-.28778,12.75378.86333,15.11559,4.25909,15.69292,3.45332-.15745,3.45332-4.46119,3.79865-9.65718v-6.03574H558.98v6.03574c0,13.646-4.25909,21.09884-15.48236,21.09884-9.89951,0-15.77014-6.98046-15.30971-24.35289V587.95517c0-18.42212,6.734-23.19823,15.30971-23.19823,11.39594,0,15.48236,9.49973,15.48236,19.15691v5.196" transform="translate(-2 -2.04999)"/></g><g id="g2403"><path id="path2405" class="cls-7" d="M640.53631,604.2778v-6.98046c-2.76265,2.51927-6.15841,5.1435-9.26639,8.29258-1.49644,1.94194-1.78422,5.196-1.78422,7.8727,0,5.03853,1.32377,8.45,5.35264,8.45C641.39964,621.91266,640.36365,610.62845,640.53631,604.2778ZM652.738,631.7273H642.03275a22.92283,22.92283,0,0,1-.63311-6.66556c-2.76265,5.301-6.216,8.29258-10.12972,8.29258-9.09374,0-13.00749-5.93077-13.00749-19.57679,0-14.69571,7.82751-18.42212,16.74858-23.3032,4.71953-2.51926,6.38863-5.66834,5.5253-10.86433-.46044-2.93914-2.24465-3.4115-5.18-3.4115-5.18,0-6.0433,3.569-6.0433,9.49973H618.5502c0-12.3339,2.93532-20.9414,17.09392-20.9414,15.48236,0,16.28814,10.54943,16.28814,19.26189v38.62872a45.01376,45.01376,0,0,0,.80577,9.07986" transform="translate(-2 -2.04999)"/></g><g id="g2407"><path id="path2409" class="cls-7" d="M657.62967,610.20915h11.22327c-.80577,12.019,2.76266,11.70409,5.23753,11.70409,3.39576,0,5.52531-3.25405,4.71954-7.40034-.17267-3.72641-3.39577-5.8258-5.52531-7.71525l-6.0433-5.66835c-5.698-5.196-9.43907-11.28421-9.43907-20.62648,0-10.07706,6.04331-15.7454,16.74859-15.7454,11.10816,0,16.173,7.55779,15.8277,21.51872H679.09778c.23022-7.24289-1.26621-10.07706-5.29508-10.07706-2.64754,0-4.77709,1.627-4.77709,5.35343,0,3.83139,2.12955,5.61587,4.25909,7.5578l9.43906,8.29258c2.76266,2.25684,7.13686,8.50252,7.48219,12.80626,1.15111,11.44167-.97844,23.14575-16.80614,23.14575-5.81308,0-17.03636-3.25405-15.77014-23.14575" transform="translate(-2 -2.04999)"/></g><g id="g2411"><path id="path2413" class="cls-7" d="M707.64576,631.72687H696.24982V544.86471h11.39594v28.23676h.11511c3.108-7.71525,7.82752-8.34507,10.12973-8.34507,6.50375,0,11.74127,4.88108,11.39594,16.4802v50.49027H717.8906v-44.717c0-6.35064-.46044-10.49694-4.71953-10.81184-4.25909-.15746-5.698,5.03853-5.52531,12.17645v43.35235" transform="translate(-2 -2.04999)"/></g></g></svg>