<svg xmlns="http://www.w3.org/2000/svg" xmlns:xlink="http://www.w3.org/1999/xlink" viewBox="0 0 1000 665"><defs><path id="a" d="M994.5 609.2V55.9c0-28.4-23-51.4-51.4-51.4H55.9c-28.4 0-51.4 23-51.4 51.4v553.2c0 28.4 23 51.4 51.4 51.4h887.2c28.4 0 51.4-23 51.4-51.3z"/></defs><clipPath id="b"><use xlink:href="#a" overflow="visible"/></clipPath><g clip-path="url(#b)"><path fill="#FFF" d="M0 0h999v665.1H0z"/><path fill="#329E48" d="M741.8 344c12.4-.1 23.9 10.1 23.9 24.1 0 15.9-13.4 25-24 25l-54.8-.2.1-49c6.1-.1 39.5.2 54.8.1zm17.3-49.2c0-14.1-10.6-23.5-21.8-23.3-15.8.4-44.2-.4-50.5.2l-.2 44.6 51.7.4c8.7-.2 20.8-8.1 20.8-21.9zM731.8 55.6c-46.8 0-89.5 42.2-89.5 89.5v98.5h132.9c26.5 0 57.6 11.3 57.6 43.5 0 17.2-9.2 36.8-42.3 43.1v.7c19.3 0 52.8 11.3 52.8 45.4 0 35.2-36.2 45-55.6 45l-145.6.1v188.3H782c38.2 0 87.8-35.7 87.8-89.9V55.4s-102.3.2-138 .2z"/><path fill="#AB263E" d="M475.2 55.4h138.1v464.4c0 54.2-49.7 89.9-87.8 89.9H385.6V397.4c23.9 18.5 61.8 29.9 115.5 29.4 35.6-.3 73.5-8.5 85.7-12.4l-.2-37.7c-14.1 6.7-47.4 18.4-67.4 19.8-60.5 4.2-82.6-27.5-82.6-64.5 0-41.1 28.5-66.6 82.8-62.7 24 1.7 52.7 12.5 67.3 19.8v-38.9c-13.2-3.9-37.5-8.5-70.2-11-57.6-4.4-102.8 6.3-130.9 28.2V144.8c.1-47.2 42.9-89.4 89.6-89.4z"/><path fill="#293F82" d="M219.7 55.4h138.1v464.4c0 54.2-49.7 89.9-87.8 89.9H130.1V415.3c14.1 3.7 43.7 9.3 65.5 10.4 84 4.2 139.3-8.6 143.5-71.5v-110h-80.4l.2 112.4c-3.5 30.3-26 42.3-62.3 39.7-16.6-1.2-57.8-14.4-66.4-19.8V144.8c-.1-47.2 42.7-89.4 89.5-89.4z"/><path fill="#333" stroke="#333" stroke-miterlimit="10" d="M944 665.1H55c-30.4 0-55-24.6-55-55V55C0 24.6 24.6 0 55 0h889c30.4 0 55 24.6 55 55v555.1c0 30.4-24.6 55-55 55zm50.5-55.9V55.9c0-28.4-23-51.4-51.4-51.4H55.9c-28.4 0-51.4 23-51.4 51.4v553.2c0 28.4 23 51.4 51.4 51.4h887.2c28.4 0 51.4-23 51.4-51.3z"/></g><use xlink:href="#a" overflow="visible" fill="none" stroke="#666" stroke-width="6" stroke-miterlimit="10"/></svg>