<svg xmlns="http://www.w3.org/2000/svg" viewBox="0 0 1000 665"><path fill="#FFF" stroke="#333" stroke-width="5" stroke-miterlimit="10" d="M994.5 609.2V55.9c0-28.4-23-51.4-51.4-51.4H55.9c-28.4 0-51.4 23-51.4 51.4v553.2c0 28.4 23 51.4 51.4 51.4h887.2c28.4 0 51.4-23 51.4-51.3z"/><g fill="#009BDE"><path d="M770.4 473.7l-19.3 122.6c-.4 2.4 1.5 4.5 3.9 4.5h19.4c3.2 0 5.9-2.3 6.4-5.5l19-120.4c.4-2.4-1.5-4.5-3.9-4.5h-21.7c-1.9 0-3.5 1.4-3.8 3.3zM712.6 557.6c-2.2 12.8-12.4 21.5-25.4 21.5-6.5 0-11.7-2.1-15.1-6.1-3.3-3.9-4.6-9.5-3.5-15.8 2-12.7 12.4-21.6 25.2-21.6 6.4 0 11.6 2.1 15 6.1 3.4 4 4.7 9.7 3.8 15.9zm31.3-43.8h-22.5c-1.9 0-3.6 1.4-3.9 3.3l-1 6.3-1.6-2.3c-4.9-7.1-15.7-9.4-26.6-9.4-24.8 0-46 18.8-50.2 45.2-2.1 13.2.9 25.8 8.4 34.5 6.9 8.1 16.6 11.4 28.3 11.4 20 0 31.1-12.9 31.1-12.9l-1 6.2c-.4 2.4 1.5 4.5 3.9 4.5H729c3.2 0 5.9-2.3 6.4-5.5l12.2-77c.5-2.1-1.3-4.3-3.7-4.3zM644.5 132.8c-.4 2.3-.8 4.7-1.2 7.1-16 82-70.6 110.3-140.3 110.3h-35.5c-8.5 0-15.7 6.2-17 14.6l.6-3.7-18.8 119-5.2 32.7c-.9 5.5 3.4 10.5 9 10.5h63c7.5 0 13.8-5.4 15-12.8l.6-3.2 11.9-75.3.8-4.2c1.2-7.4 7.5-12.8 15-12.8h9.4c61 0 108.8-24.8 122.8-96.5 5.8-30 2.8-55-12.6-72.6-5-5.1-10.8-9.5-17.5-13.1M609 514.4c-2.6 16.9-15.4 16.9-27.9 16.9H574l5-31.5c.3-1.9 1.9-3.3 3.9-3.3h3.2c8.5 0 16.5 0 20.6 4.8 2.5 2.9 3.2 7.2 2.3 13.1zm-5.4-44h-46.9c-3.2 0-5.9 2.3-6.4 5.5l-19 120.4c-.4 2.4 1.5 4.5 3.9 4.5h24.1c2.2 0 4.2-1.6 4.5-3.9l5.4-34.1c.5-3.2 3.2-5.5 6.4-5.5h14.9c30.9 0 48.8-15 53.4-44.6 2.1-13 .1-23.2-6-30.3-6.8-7.8-18.6-12-34.3-12z"/></g><path fill="#002F87" d="M450.3 264.8c1.3-8.4 8.5-14.6 17-14.6h35.5c69.8 0 124.4-28.3 140.3-110.3.5-2.4.9-4.8 1.2-7.1-4-2.1-8.4-4-13.1-5.5-1.2-.4-2.4-.8-3.6-1.1-2.4-.7-4.9-1.4-7.5-1.9-2.6-.6-5.3-1.1-8-1.5-9.6-1.5-20.1-2.3-31.3-2.3H486c-2.3 0-4.6.5-6.5 1.5-4.4 2.1-7.6 6.2-8.4 11.3l-20.2 127.9-.6 3.6z"/><g fill="#022169"><path d="M377.7 557.6c-2.2 12.8-12.4 21.5-25.4 21.5-6.5 0-11.7-2.1-15.1-6.1-3.3-3.9-4.6-9.5-3.5-15.8 2-12.7 12.4-21.6 25.2-21.6 6.4 0 11.6 2.1 15 6.1 3.5 4 4.8 9.7 3.8 15.9zm31.4-43.8h-22.5c-1.9 0-3.6 1.4-3.9 3.3l-1 6.3-1.6-2.3c-4.9-7.1-15.7-9.4-26.6-9.4-24.8 0-46 18.8-50.2 45.2-2.1 13.2.9 25.8 8.4 34.5 6.9 8.1 16.6 11.4 28.3 11.4 20 0 31.1-12.9 31.1-12.9l-1 6.2c-.4 2.4 1.5 4.5 3.9 4.5h20.2c3.2 0 5.9-2.3 6.4-5.5l12.2-77c.5-2.1-1.3-4.3-3.7-4.3zM274.2 514.4c-2.6 16.9-15.4 16.9-27.9 16.9h-7.1l5-31.5c.3-1.9 1.9-3.3 3.9-3.3h3.2c8.5 0 16.5 0 20.6 4.8 2.4 2.9 3.2 7.2 2.3 13.1zm-5.5-44h-46.9c-3.2 0-5.9 2.3-6.4 5.5l-19 120.4c-.4 2.4 1.5 4.5 3.9 4.5h22.4c3.2 0 5.9-2.3 6.4-5.5l5.1-32.5c.5-3.2 3.2-5.5 6.4-5.5h14.9c30.9 0 48.8-15 53.4-44.6 2.1-13 .1-23.2-6-30.3-6.6-7.8-18.5-12-34.2-12zM528.8 513.8h-22.6c-2.2 0-4.2 1.1-5.4 2.9l-31.2 45.9-13.2-44.1c-.8-2.8-3.4-4.7-6.2-4.7H428c-2.7 0-4.6 2.6-3.7 5.2l24.9 73-23.4 33c-1.8 2.6 0 6.2 3.2 6.2h22.6c2.1 0 4.1-1 5.4-2.8L532 520c1.8-2.6-.1-6.2-3.2-6.2zM471.1 133.2c.8-5.1 4-9.2 8.4-11.3 2-1 4.2-1.5 6.5-1.5h94.9c11.2 0 21.7.7 31.3 2.3 2.7.4 5.4.9 8 1.5 2.6.6 5.1 1.2 7.5 1.9 1.2.4 2.4.7 3.6 1.1 4.7 1.6 9.1 3.4 13.1 5.5 4.8-30.3 0-50.9-16.4-69.6-18-20.6-50.6-29.4-92.3-29.4H414.6c-8.5 0-15.8 6.2-17.1 14.6L347.1 368c-1 6.3 3.9 12 10.3 12h74.7l18.8-119 20.2-127.8z"/></g><g><defs><path id="a" d="M944 665.1H55c-30.4 0-55-24.6-55-55V55C0 24.6 24.6 0 55 0h889c30.4 0 55 24.6 55 55v555.1c0 30.4-24.6 55-55 55zm50.5-55.9V55.9c0-28.4-23-51.4-51.4-51.4H55.9c-28.4 0-51.4 23-51.4 51.4v553.2c0 28.4 23 51.4 51.4 51.4h887.2c28.4 0 51.4-23 51.4-51.3z"/></defs></g></svg>