<svg id="mask" xmlns="http://www.w3.org/2000/svg" viewBox="0 0 995 661"><defs><style>.cls-2{fill:#009ade}.cls-3{fill:#002169}</style></defs><g id="PayPal"><rect x="171.5" y="-162.45" width="656" height="990" rx="51.387" ry="51.387" transform="rotate(90 499.525 330.525)" fill="#fff" stroke="#333" stroke-miterlimit="10" stroke-width="5" id="Card_Frame" data-name="Card Frame"/><g id="paypal-3of3"><path class="cls-2" d="M908.065 209.068l-28.797 183.209a5.85 5.85 0 0 0 5.779 6.757h28.96a9.746 9.746 0 0 0 9.628-8.23l28.397-179.914a5.85 5.85 0 0 0-5.78-6.763h-32.408a5.848 5.848 0 0 0-5.779 4.941zM821.64 334.428c-3.243 19.198-18.484 32.086-37.92 32.086-9.746 0-17.546-3.136-22.563-9.071-4.97-5.884-6.841-14.264-5.264-23.599 3.025-19.025 18.51-32.327 37.654-32.327 9.54 0 17.285 3.161 22.399 9.152 5.147 6.034 7.167 14.473 5.694 23.759zm46.826-65.395h-33.599a5.844 5.844 0 0 0-5.776 4.938l-1.48 9.394-2.346-3.403c-7.279-10.564-23.495-14.09-39.688-14.09-37.118 0-68.827 28.128-75 67.578-3.21 19.684 1.35 38.49 12.51 51.62 10.25 12.06 24.883 17.083 42.314 17.083 29.919 0 46.516-19.221 46.516-19.221l-1.502 9.338a5.852 5.852 0 0 0 5.779 6.764h30.257a9.749 9.749 0 0 0 9.629-8.227L874.24 275.79a5.846 5.846 0 0 0-5.775-6.757zM666.845 269.838c-3.837 25.186-23.07 25.186-41.676 25.186h-10.587L622.007 248a5.85 5.85 0 0 1 5.78-4.935h4.85c12.666 0 24.628 0 30.795 7.213 3.69 4.319 4.808 10.717 3.413 19.56zm-8.097-65.71h-70.166a9.746 9.746 0 0 0-9.629 8.23L550.58 392.272a5.848 5.848 0 0 0 5.776 6.76h36.001a6.824 6.824 0 0 0 6.74-5.759l8.048-51.007a9.746 9.746 0 0 1 9.629-8.23h22.203c46.216 0 72.888-22.367 79.86-66.699 3.14-19.387.128-34.622-8.95-45.287-9.98-11.724-27.666-17.924-51.138-17.924z" transform="translate(-2 -2.05)"/></g><g id="paypal-1of3"><path class="cls-3" d="M321.194 334.428c-3.245 19.198-18.484 32.086-37.922 32.086-9.746 0-17.546-3.136-22.561-9.071-4.97-5.884-6.841-14.264-5.265-23.599 3.025-19.025 18.51-32.327 37.652-32.327 9.54 0 17.288 3.161 22.4 9.152 5.147 6.034 7.17 14.473 5.696 23.759zm46.824-65.395H334.42a5.847 5.847 0 0 0-5.778 4.938l-1.477 9.394-2.35-3.403c-7.276-10.564-23.492-14.09-39.685-14.09-37.117 0-68.827 28.128-74.998 67.578-3.212 19.684 1.347 38.49 12.507 51.62 10.253 12.06 24.884 17.083 42.316 17.083 29.92 0 46.514-19.221 46.514-19.221l-1.5 9.338a5.85 5.85 0 0 0 5.777 6.764h30.257a9.746 9.746 0 0 0 9.628-8.227l18.164-115.017a5.845 5.845 0 0 0-5.777-6.757zM166.397 269.838c-3.834 25.186-23.07 25.186-41.675 25.186h-10.585L121.56 248a5.848 5.848 0 0 1 5.778-4.935h4.852c12.664 0 24.628 0 30.794 7.213 3.69 4.319 4.807 10.717 3.412 19.56zm-8.097-65.71H88.134a9.749 9.749 0 0 0-9.63 8.23L50.131 392.272a5.85 5.85 0 0 0 5.778 6.76H89.41a9.75 9.75 0 0 0 9.63-8.23l7.656-48.536a9.748 9.748 0 0 1 9.63-8.23h22.202c46.217 0 72.89-22.367 79.862-66.699 3.138-19.387.126-34.622-8.952-45.287-9.979-11.724-27.664-17.924-51.138-17.924zM546.965 269.033h-33.772a9.752 9.752 0 0 0-8.064 4.273l-46.584 68.609-19.743-65.93a9.752 9.752 0 0 0-9.338-6.952h-33.198a5.853 5.853 0 0 0-5.538 7.738l37.188 109.146-34.978 49.352a5.85 5.85 0 0 0 4.772 9.231h33.739a9.745 9.745 0 0 0 8.012-4.195l112.311-162.09a5.85 5.85 0 0 0-4.807-9.182z" transform="translate(-2 -2.05)"/></g></g></svg>