<svg id="mask" xmlns="http://www.w3.org/2000/svg" viewBox="0 0 995 661"><defs><style>.cls-2{fill:#5876df}</style></defs><g id="PayPal"><rect x="171.5" y="-162.45" width="656" height="990" rx="51.387" ry="51.387" transform="rotate(90 499.525 330.525)" fill="#fff" stroke="#333" stroke-miterlimit="10" stroke-width="5" id="Card_Frame" data-name="Card Frame"/></g><g id="ELV"><g id="Stripe"><path class="cls-2" d="M962.75 334.642c0-65.707-31.827-117.554-92.657-117.554-61.086 0-98.046 51.847-98.046 117.04 0 77.257 43.633 116.27 106.26 116.27 30.543 0 53.643-6.93 71.096-16.683v-51.333c-17.453 8.726-37.473 14.116-62.883 14.116-24.897 0-46.97-8.726-49.793-39.013h125.51c0-3.337.513-16.683.513-22.843zm-126.793-24.384c0-29.003 17.71-41.066 33.88-41.066 15.656 0 32.34 12.063 32.34 41.066zM672.973 217.088c-25.153 0-41.323 11.807-50.306 20.02l-3.337-15.913h-56.467v299.273l64.167-13.603.257-72.637c9.24 6.674 22.843 16.17 45.43 16.17 45.943 0 87.78-36.96 87.78-118.323-.257-74.433-42.607-114.987-87.524-114.987zm-15.4 176.844c-15.143 0-24.126-5.39-30.286-12.064l-.257-95.223c6.673-7.443 15.913-12.577 30.543-12.577 23.357 0 39.527 26.18 39.527 59.804 0 34.393-15.913 60.06-39.527 60.06z" transform="translate(-2 -2.05)"/><path class="cls-2" d="M472.57 199.895l64.423-13.86v-52.103l-64.423 13.603v52.36zM472.57 219.402h64.423v224.583H472.57z"/><path class="cls-2" d="M405.527 240.445l-4.107-18.993h-55.44v224.583h64.167V293.832c15.143-19.764 40.81-16.17 48.766-13.347v-59.033c-8.213-3.08-38.243-8.727-53.386 18.993zM277.193 165.755l-62.626 13.347-.257 205.59c0 37.986 28.49 65.963 66.477 65.963 21.046 0 36.446-3.85 44.916-8.47v-52.103c-8.213 3.336-48.766 15.143-48.766-22.844v-91.116h48.766v-54.67h-48.766zM103.687 286.645c0-10.01 8.213-13.86 21.816-13.86 19.507 0 44.147 5.903 63.654 16.427v-60.317a169.263 169.263 0 0 0-63.654-11.807c-52.103 0-86.753 27.207-86.753 72.637 0 70.84 97.533 59.547 97.533 90.09 0 11.807-10.266 15.657-24.64 15.657-21.303 0-48.51-8.727-70.07-20.534v61.087a177.924 177.924 0 0 0 70.07 14.63c53.387 0 90.09-26.437 90.09-72.38-.256-76.487-98.046-62.883-98.046-91.63z" transform="translate(-2 -2.05)"/></g></g></svg>