<svg id="Card_Frame_copy" xmlns="http://www.w3.org/2000/svg" xmlns:xlink="http://www.w3.org/1999/xlink" viewBox="0 0 1000 665"><style>.st0{clip-path:url(#SVGID_2_);} .st1{fill:#FFFFFF;stroke:#666666;stroke-width:10;stroke-miterlimit:10;} .st2{fill:#F7B600;} .st3{fill:#1A1F71;} .st4{fill:#666666;stroke:#666666;stroke-width:10;stroke-miterlimit:10;}</style><defs><path id="SVGID_1_" d="M994.5 609.2V55.9c0-28.4-23-51.4-51.4-51.4H55.9c-28.4 0-51.4 23-51.4 51.4v553.2c0 28.4 23 51.4 51.4 51.4h887.2c28.4 0 51.4-23 51.4-51.3z"/></defs><clipPath id="SVGID_2_"><use xlink:href="#SVGID_1_" overflow="visible"/></clipPath><g id="Visa" class="st0"><path class="st1" d="M0 0h999v665H0z" id="Layer_4"/><path id="Visa-2of2" class="st2" d="M13.9 547.3h972.2v86.4H13.9z"/><path id="Visa-1of2" class="st3" d="M13.9 33.3v86.4h972.2V33.3H13.9zM403 214.9h-65.1l-64.5 161.7-26.1-137.5c-3.1-15.3-15.2-24.2-28.6-24.2H113.2l-1.5 6.9c21.6 4.7 46.2 12.2 61.2 20.2 9.1 4.9 11.7 9.2 14.7 20.9L237 452.5h65.5L403 214.9m256.7 160c.3-62.7-87.4-66.2-86.8-94.2.2-8.5 8.4-17.6 26.3-19.9 8.9-1.1 33.4-2.1 61.1 10.6l10.9-50.4c-14.9-5.4-34.1-10.5-58-10.5-61.3 0-104.4 32.3-104.7 78.5-.4 34.2 30.8 53.2 54.2 64.6 24.2 11.7 32.3 19.2 32.2 29.5-.2 15.9-19.3 23-37.1 23.2-31.2.5-49.3-8.3-63.7-15l-11.2 52c14.5 6.6 41.2 12.4 68.9 12.6 65.1.3 107.7-31.6 107.9-81m161.8 77.6h57.3l-50.1-237.6h-52.9c-11.9 0-22 6.9-26.4 17.4l-93 220.1h65.1l12.9-35.5H814l7.5 35.6zm-69.1-84.2l32.6-89.2 18.8 89.2h-51.4zM429.6 214.9l-51.3 237.6h62l51.3-237.6h-62z"/><path class="st4" d="M944 665.1H55c-30.4 0-55-24.6-55-55V55C0 24.6 24.6 0 55 0h889c30.4 0 55 24.6 55 55v555.1c0 30.4-24.6 55-55 55zm50.5-55.9V55.9c0-28.4-23-51.4-51.4-51.4H55.9c-28.4 0-51.4 23-51.4 51.4v553.2c0 28.4 23 51.4 51.4 51.4h887.2c28.4 0 51.4-23 51.4-51.3z" id="Card_Frame"/></g></svg>